<svg width="640" height="480" xmlns="http://www.w3.org/2000/svg">
 <!-- Created with SVG-edit - http://svg-edit.googlecode.com/ -->
 <g>
  <title>Layer 1</title>
  <path stroke="#000000" d="m56,32.005039c2.730766,0 8.757057,-0.423023 13.653847,4.516022c12.484428,12.592136 26.435265,34.245502 40.96154,56.45026c18.050034,27.591148 43.00145,50.523232 65.538452,74.514336c24.159531,25.718323 49.153854,54.192261 62.807709,65.4823l16.384613,9.032043l8.192291,0l5.461548,0" id="svg_1" stroke-width="5" fill="none"/>
  <path d="m322,174c2,2 3.690979,5.251602 7,9c5.335632,6.044098 7.862701,13.080261 12,20c4.841217,8.097076 9.088654,14.941849 13,21c5.117065,7.925629 9.795685,14.091141 13,21c3.763275,8.114044 10.096863,14.91626 17,23c5.071899,5.939331 8.723999,11.222717 12,15c2.779785,3.205109 4,6 6,10l1,1l2,2l1,1" id="svg_2" stroke-linecap="null" stroke-linejoin="null" stroke-dasharray="null" stroke-width="5" stroke="#000000" fill="none"/>
  <line stroke="#000000" id="svg_3" y2="348" x2="223" y1="193.000004" x1="4.000009" stroke-linecap="null" stroke-linejoin="null" stroke-dasharray="null" stroke-width="5" fill="none"/>
  <path id="svg_4" d="m375.076813,88.000488c2.348785,-2.453995 4.343719,-5.376778 5.186462,-8.695213c-2.519531,1.91523 -4.829407,4.995689 -8.343658,4.879143c-2.65274,0.15213 -5.814056,0.154839 -7.680359,-2.064064c-4.173431,-3.355858 -5.294952,-10.062836 -1.867676,-14.333549c2.344666,-3.083549 6.440277,-4.391209 10.197144,-3.928638c2.367554,-1.004677 -0.462799,-3.548641 -0.747528,-5.136395c-1.761932,-5.759068 2.389526,-12.667179 8.494263,-13.330536c4.37851,-0.628624 8.6586,2.205906 10.802307,5.884495c1.163635,2.573948 0.556641,5.495281 0.284729,8.165703c-0.914612,1.341877 -3.256531,4.58839 0.085602,4.332676c3.305969,-0.052357 6.796875,0.918159 8.976746,3.546692c3.187408,3.540115 3.479462,9.390289 0.273285,13.007751c-1.69693,2.203384 -4.244385,3.966797 -7.125092,3.868683c-2.820282,0.284775 -5.874939,-0.327263 -7.873993,-2.476227c-0.854187,-0.597725 -2.944794,-2.856216 -2.942963,-2.36097c2.088776,4.352425 4.450836,8.872612 8.631134,11.569679c1.493225,1.200722 -2.275085,0.375252 -3.187408,0.619942c-5.526123,0.004875 -11.052704,0.009796 -16.578827,0.014832c1.137543,-1.188087 2.276459,-2.376137 3.415833,-3.564003l0,0z" stroke-linecap="null" stroke-linejoin="null" stroke-dasharray="null" stroke-width="5" stroke="#000000" fill="none"/>
  <path id="svg_5" d="m462.117798,209.424225c-2.292603,0.422546 -2.337036,-2.909119 -0.27771,-3.01593c-0.617798,-1.429138 -0.145264,-3.182983 0.765625,-4.506165c1.308228,-2.210571 3.275269,-4.407471 2.86853,-7.174316c-0.140137,-1.439819 -1.924316,-4.020813 0.84082,-3.651245c0.747681,-1.435547 0.312744,-3.549133 0.874146,-5.197876c0.489624,-3.125732 1.579102,-6.461243 0.42041,-9.560486c-0.731445,-1.64917 -2.588257,-2.735229 -2.38916,-4.751404c-0.210205,-1.966614 -0.140137,-3.948181 0.088867,-5.908813c0.89209,0.074768 1.88501,-0.188416 2.699341,0.216187c-0.005981,1.903381 1.802124,1.481689 1.585938,-0.135864c0.475098,-0.187988 1.262939,-0.026917 1.857666,-0.080322c2.648926,0 5.296997,0 7.945923,0c-0.303345,1.103149 0.516113,2.525879 1.554321,1.226624c-0.283691,-1.726074 2.09436,-1.155273 1.524414,0.329834c0.033325,1.967041 0.274292,4.002869 -0.27771,5.918213c-0.89978,0.764771 -0.914307,2.270386 -2.042236,3.172302c-0.904907,1.691467 -0.506714,3.734985 -0.405884,5.572144c0.383667,2.719421 1.0177,5.404236 1.174927,8.154419c-0.112793,1.495789 2.965088,1.055298 1.638916,2.895874c-1.451782,1.235168 -0.601563,3.321411 -0.028198,4.796692c1.133911,2.549805 3.523926,4.840271 3.16333,7.830994c-0.2854,1.306519 2.080688,0.864319 1.4646,2.546814c-0.017944,2.073425 -3.098389,0.740417 -4.463867,1.176208c-6.859863,0.082886 -13.72229,0.211487 -20.583008,0.146118l0,0z" stroke-linecap="null" stroke-linejoin="null" stroke-dasharray="null" stroke-width="5" stroke="#000000" fill="none"/>
  <path id="svg_6" d="m464.892456,375.477936c-3.111389,0.572876 -3.171692,-3.948792 -0.376892,-4.091431c-0.838562,-1.941162 -0.197266,-4.32196 1.039063,-6.115967c1.77533,-3.000183 4.444885,-5.981689 3.893005,-9.736694c-0.190186,-1.953918 -2.611694,-5.457397 1.141113,-4.955261c1.014587,-1.94812 0.424438,-4.817139 1.18634,-7.054138c0.664368,-4.242188 2.143066,-8.768372 0.570557,-12.975525c-0.992798,-2.238281 -3.512634,-3.71106 -3.243591,-6.449036c-0.284241,-2.668396 -0.189148,-5.358826 0.120605,-8.019226c1.211853,0.102173 2.559265,-0.255005 3.664551,0.294678c-0.008118,2.582703 2.44458,2.010864 2.152222,-0.184387c0.644775,-0.256287 1.714111,-0.037109 2.52124,-0.110291c3.594971,0 7.188782,0 10.782593,0c-0.411682,1.498413 0.701477,3.428101 2.110596,1.665405c-0.38501,-2.342529 2.842346,-1.567871 2.068848,0.447632c0.045227,2.669556 0.372253,5.431885 -0.376892,8.03186c-1.22113,1.037903 -1.240845,3.08136 -2.771606,4.304688c-1.22937,2.296143 -0.687683,5.070068 -0.550842,7.563354c0.520691,3.690063 1.381042,7.335022 1.594543,11.066711c-0.153198,2.029419 4.024048,1.43219 2.224243,3.928955c-1.970398,1.67688 -0.816406,4.508911 -0.038269,6.510376c1.538879,3.460571 4.782471,6.568359 4.293091,10.627197c-0.387329,1.773132 2.823792,1.173706 1.987671,3.45697c-0.024353,2.813477 -4.204956,1.005554 -6.058228,1.595703c-9.309692,0.11377 -18.622986,0.28772 -27.93396,0.198425l0,0z" stroke-linecap="null" stroke-linejoin="null" stroke-dasharray="null" stroke-width="5" stroke="#000000" fill="none"/>
 </g>
</svg>